<svg width="75" height="75" viewBox="0 0 52 61" fill="none" xmlns="http://www.w3.org/2000/svg">
    <path fill-rule="evenodd" clip-rule="evenodd"
          d="M46.02 43.215a2.678 2.678 0 002.684 2.677 2.698 2.698 0 002.696-2.688V16.388c0-.964-.523-1.86-1.365-2.337L25.831.35c-1.285-.726-2.935-.284-3.663 1.01a2.674 2.674 0 001.013 3.652l22.839 12.93v25.273zm-10.453 6.851a2.678 2.678 0 002.685 2.677 2.688 2.688 0 002.684-2.688V23.24a2.69 2.69 0 00-1.365-2.336L15.378 7.21a2.7 2.7 0 00-3.662 1.01 2.674 2.674 0 001.012 3.652l22.84 12.932v25.261zm-8.678 10.13a2.678 2.678 0 01-2.685-2.677V32.246l-6.881-3.898v23.5c.011 1.485-1.194 2.677-2.684 2.677a2.678 2.678 0 01-2.685-2.678v-26.54L5.38 21.583v24.593a2.678 2.678 0 01-2.684 2.677C1.217 48.853 0 47.662 0 46.187v-29.21c0-.952.512-1.837 1.33-2.313a2.7 2.7 0 012.685-.011L28.22 28.355a2.692 2.692 0 011.365 2.337v26.816a2.69 2.69 0 01-2.695 2.688z"
          fill="url(#icon-misc_svg__paint0_linear_74_5357)"></path>
    <defs>
        <linearGradient id="icon-misc_svg__paint0_linear_74_5357" x1="14.639" y1="22.048" x2="14.639" y2="54.525"
                        gradientUnits="userSpaceOnUse">
            <stop stop-color="#6D8CC8" stop-opacity="0.5"></stop>
            <stop offset="1" stop-color="#6D8CC8" stop-opacity="0"></stop>
        </linearGradient>
    </defs>
</svg>
