<svg xmlns="http://www.w3.org/2000/svg" width="158" height="48.00000000000001">
    <g class="layer">
        <title>Layer 1</title>
        <path d="m110.05,10.87c1.58,0 2.69,0.81 3.31,2.42c0.1,0.3 0.15,0.61 0.15,0.91l0,2.27l3.44,0c1.63,0 3.27,0.75 4.91,2.24c1.41,1.57 2.12,3.32 2.12,5.28c0,2.25 -0.94,4.19 -2.81,5.82c-1.44,1.14 -3.14,1.72 -5.12,1.72l-6.04,0l-0.1,-0.09l0,-20.47c0.02,-0.06 0.06,-0.1 0.14,-0.1zm3.47,9.17l0,7.91l3.18,0c1.11,0 2.12,-0.57 3.01,-1.72c0.46,-0.69 0.69,-1.44 0.69,-2.27c0,-1.51 -0.74,-2.68 -2.23,-3.53c-0.55,-0.26 -1.04,-0.4 -1.47,-0.4l-3.18,0l0,0.01z"
              fill="#C5C5FF" id="svg_5"/>
        <path d="m133.28,16.79l0.29,0c2.07,0 3.89,0.85 5.48,2.54c1.19,1.48 1.77,2.99 1.77,4.54l0,0.53c0,1.84 -0.75,3.54 -2.24,5.08c-1.52,1.37 -3.14,2.06 -4.86,2.06l-0.53,0c-1.69,0 -3.29,-0.65 -4.8,-1.95c-1.57,-1.57 -2.36,-3.31 -2.36,-5.24l0,-0.36c0,-1.98 0.83,-3.76 2.49,-5.33c1.45,-1.25 3.04,-1.87 4.76,-1.87zm-3.73,7.28c0,1.3 0.59,2.37 1.76,3.2c0.67,0.43 1.38,0.63 2.08,0.63c1.31,0 2.38,-0.58 3.21,-1.75c0.42,-0.67 0.64,-1.36 0.64,-2.08c0,-1.3 -0.59,-2.37 -1.76,-3.2c-0.68,-0.42 -1.38,-0.63 -2.09,-0.63c-1.3,0 -2.37,0.58 -3.21,1.75c-0.42,0.67 -0.63,1.37 -0.63,2.08z"
              fill="#C5C5FF" id="svg_6"/>
        <path d="m145.38,16.66l1.29,0c0.2,0.15 1.23,1.47 3.08,3.94l0.47,0.55c1.64,-2.24 2.8,-3.73 3.48,-4.48l0.67,0c2.1,0.05 3.14,0.25 3.14,0.61l0,0.74l-4.57,6.11l0,0.07l4.57,6.05l0,0.68c-0.33,0.41 -1.17,0.61 -2.52,0.61l-1.29,0c-0.78,-0.84 -1.93,-2.33 -3.48,-4.48l-0.07,0l-3.41,4.48l-0.88,0c-1.82,0 -2.81,-0.2 -2.99,-0.61l0,-0.75l4.63,-6.11c-0.89,-1.07 -2.44,-3.12 -4.63,-6.12l0,-0.68c0.31,-0.41 1.15,-0.61 2.51,-0.61z"
              fill="#C5C5FF" id="svg_7"/>
        <path d="m37.84,36c-1.12,0 -2.02,-0.91 -2.02,-2.01l0,-18.98l-17.15,-9.71c-0.98,-0.55 -1.31,-1.79 -0.76,-2.75c0.54,-0.97 1.78,-1.3 2.75,-0.76l18.18,10.29c0.63,0.36 1.02,1.04 1.02,1.76l0,20.14c-0.01,1.11 -0.91,2.02 -2.02,2.02z"
              fill="#C5C5FF" id="svg_8"/>
        <path d="m29.99,41.14c-1.12,0 -2.02,-0.9 -2.02,-2.01l0,-18.97l-17.15,-9.71c-0.98,-0.55 -1.31,-1.78 -0.76,-2.74c0.55,-0.97 1.78,-1.31 2.75,-0.76l18.17,10.28c0.63,0.36 1.02,1.03 1.02,1.75l0,20.14c0,1.12 -0.9,2.02 -2.01,2.02z"
              fill="#C5C5FF" id="svg_9"/>
        <path d="m21.45,46.74c-1.12,0 -2.01,-0.91 -2.01,-2.01l0,-18.98l-14.14,-8.01l0,18.47c0,1.11 -0.9,2.01 -2.02,2.01c-1.11,0 -2.02,-0.9 -2.02,-2l0,-21.94c0,-0.71 0.38,-1.38 1,-1.74c0.62,-0.35 1.38,-0.36 2.02,0l18.17,10.29c0.63,0.35 1.03,1.03 1.03,1.75l0,20.14c0,1.11 -0.91,2.02 -2.03,2.02z"
              fill="#C5C5FF" id="svg_10"/>
        <path d="m12.25,42.48c-1.12,0 -2.01,-0.9 -2.01,-2.01l0,-20.37c0,-1.12 0.9,-2.01 2.01,-2.01c1.11,0 2.02,0.9 2.02,2.01l0,20.37c0.01,1.11 -0.9,2.01 -2.02,2.01z"
              fill="#C5C5FF" id="svg_11"/>
        <path d="m51.61,10.87c1.58,0 2.69,0.81 3.31,2.42c0.1,0.3 0.15,0.61 0.15,0.91l0,2.27l3.44,0c1.63,0 3.27,0.75 4.91,2.24c1.41,1.57 2.12,3.32 2.12,5.28c0,2.25 -0.94,4.19 -2.81,5.82c-1.44,1.14 -3.14,1.72 -5.12,1.72l-6.04,0l-0.1,-0.09l0,-20.47c0.02,-0.06 0.06,-0.1 0.14,-0.1zm3.47,9.17l0,7.91l3.18,0c1.11,0 2.12,-0.57 3.01,-1.72c0.46,-0.69 0.69,-1.44 0.69,-2.27c0,-1.51 -0.74,-2.68 -2.23,-3.53c-0.55,-0.26 -1.04,-0.4 -1.47,-0.4l-3.18,0l0,0.01z"
              fill="#C5C5FF" id="svg_12"/>
        <path d="m76.55,16.53l0.29,0c2.07,0 3.89,0.85 5.48,2.54c1.19,1.48 1.77,2.99 1.77,4.54l0,0.53c0,1.84 -0.75,3.54 -2.24,5.08c-1.52,1.37 -3.14,2.06 -4.86,2.06l-0.53,0c-1.69,0 -3.29,-0.65 -4.8,-1.95c-1.57,-1.57 -2.36,-3.31 -2.36,-5.24l0,-0.36c0,-1.98 0.83,-3.76 2.49,-5.33c1.45,-1.25 3.04,-1.87 4.76,-1.87zm-3.73,7.28c0,1.3 0.59,2.37 1.76,3.2c0.67,0.43 1.38,0.63 2.08,0.63c1.31,0 2.38,-0.58 3.21,-1.75c0.42,-0.67 0.64,-1.36 0.64,-2.08c0,-1.3 -0.59,-2.37 -1.76,-3.2c-0.68,-0.42 -1.38,-0.63 -2.09,-0.63c-1.3,0 -2.37,0.58 -3.21,1.75c-0.42,0.67 -0.63,1.37 -0.63,2.08z"
              fill="#C5C5FF" id="svg_13" transform="matrix(1 0 0 1 0 0)"/>
        <path d="m94.89,16.39l0.29,0c2.07,0 3.89,0.85 5.48,2.54c1.19,1.48 1.77,2.99 1.77,4.54l0,0.53c0,1.84 -0.75,3.54 -2.24,5.08c-1.52,1.37 -3.14,2.06 -4.86,2.06l-0.53,0c-1.69,0 -3.29,-0.65 -4.8,-1.95c-1.57,-1.57 -2.36,-3.31 -2.36,-5.24l0,-0.36c0,-1.98 0.83,-3.76 2.49,-5.33c1.45,-1.25 3.04,-1.87 4.76,-1.87zm-3.73,7.28c0,1.3 0.59,2.37 1.76,3.2c0.67,0.43 1.38,0.63 2.08,0.63c1.31,0 2.38,-0.58 3.21,-1.75c0.42,-0.67 0.64,-1.36 0.64,-2.08c0,-1.3 -0.59,-2.37 -1.76,-3.2c-0.68,-0.42 -1.38,-0.63 -2.09,-0.63c-1.3,0 -2.37,0.58 -3.21,1.75c-0.42,0.67 -0.63,1.37 -0.63,2.08z"
              fill="#C5C5FF" id="svg_14" transform="matrix(1 0 0 1 0 0)"/>
    </g>
</svg>